<svg width="44.765" height="72.909" xmlns="http://www.w3.org/2000/svg">
 <g>
  <title>Layer 1</title>
  <g stroke="null" id="Layer_2" data-name="Layer 2">
   <g stroke="null" id="Layer_1-2" data-name="Layer 1">
    <path stroke="null" class="cls-1" d="m31.0087,44.31941l-22.31935,0a0.74437,0.8084 0 0 0 -0.77982,0.79557l0,1.61681a0.74437,0.8084 0 0 0 0.73256,0.8084l9.67684,0l0,23.03308a0.74437,0.8084 0 0 0 0.74437,0.8084l1.47693,0a0.74437,0.8084 0 0 0 0.74437,-0.8084l0,-23.02025l9.67684,0a0.74437,0.8084 0 0 0 0.74437,-0.8084l0,-1.62964a0.75619,0.82124 0 0 0 -0.69711,-0.79557z" id="svg_1"/>
    <path stroke="null" class="cls-2" d="m8.68935,44.73003a0.36628,0.39779 0 0 0 -0.36628,0.39779l0,1.61681a0.36628,0.39779 0 0 0 0.36628,0.41062l9.67684,0a0.36628,0.39779 0 0 1 0.36628,0.39779l0,23.02025a0.36628,0.39779 0 0 0 0.37809,0.39779l1.47693,0a0.36628,0.39779 0 0 0 0.37809,-0.39779l0,-23.02025a0.36628,0.39779 0 0 1 0.36628,-0.39779l9.67684,0a0.36628,0.39779 0 0 0 0.36628,-0.41062l0,-1.62964a0.36628,0.39779 0 0 0 -0.36628,-0.39779l-22.31935,0.01283zm11.89814,27.04943l-1.47693,0a1.11065,1.20619 0 0 1 -1.18154,-1.20619l0,-22.60963l-9.23967,0a1.18154,1.28318 0 0 1 -1.11065,-1.28318l0,-1.56548a1.11065,1.20619 0 0 1 1.11065,-1.20619l22.31935,0a1.11065,1.20619 0 0 1 1.11065,1.20619l0,1.61681a1.18154,1.28318 0 0 1 -1.11065,1.28318l-9.29875,0l0,22.5583a1.18154,1.28318 0 0 1 -1.12247,1.20619z" id="svg_2"/>
    <path stroke="null" class="cls-3" d="m33.23,44.31941l-22.30754,0a0.75619,0.82124 0 0 0 -0.74437,0.8084l0,1.61681a0.74437,0.8084 0 0 0 0.74437,0.8084l9.66502,0l0,23.02025a0.74437,0.8084 0 0 0 0.74437,0.8084l1.48874,0a0.74437,0.8084 0 0 0 0.74437,-0.8084l0,-23.02025l9.66502,0a0.74437,0.8084 0 0 0 0.74437,-0.8084l0,-1.62964a0.74437,0.8084 0 0 0 -0.74437,-0.79557z" id="svg_3"/>
    <path stroke="null" class="cls-2" d="m10.92246,44.73003a0.36628,0.39779 0 0 0 -0.36628,0.39779l0,1.61681a0.36628,0.39779 0 0 0 0.36628,0.41062l9.66502,0a0.36628,0.39779 0 0 1 0.37809,0.39779l0,23.02025a0.36628,0.39779 0 0 0 0.36628,0.39779l1.48874,0a0.36628,0.39779 0 0 0 0.37809,-0.39779l0,-23.02025a0.36628,0.39779 0 0 1 0.36628,-0.39779l9.66502,0a0.37809,0.41062 0 0 0 0.37809,-0.41062l0,-1.62964a0.36628,0.39779 0 0 0 -0.37809,-0.39779l-22.30754,0.01283zm11.89814,27.04943l-1.48874,0a1.11065,1.20619 0 0 1 -1.11065,-1.20619l0,-22.60963l-9.29875,0a1.18154,1.28318 0 0 1 -1.11065,-1.28318l0,-1.56548a1.11065,1.20619 0 0 1 1.11065,-1.20619l22.30754,0a1.18154,1.28318 0 0 1 1.12247,1.20619l0,1.61681a1.18154,1.28318 0 0 1 -1.12247,1.28318l-9.28693,0l0,22.5583a1.18154,1.28318 0 0 1 -1.12247,1.20619z" id="svg_4"/>
    <rect stroke="null" class="cls-2" x="5.34558" y="33.01459" width="11.89814" height="2.42521" id="svg_5"/>
    <path stroke="null" class="cls-2" d="m5.72367,35.04202l11.15377,0l0,-1.61681l-11.15377,0l0,1.61681zm11.52005,0.8084l-11.89814,0a0.36628,0.39779 0 0 1 -0.36628,-0.41062l0,-2.42521a0.36628,0.39779 0 0 1 0.36628,-0.39779l11.89814,0a0.36628,0.39779 0 0 1 0.37809,0.39779l0,2.42521a0.37809,0.41062 0 0 1 -0.37809,0.41062z" id="svg_6"/>
    <path stroke="null" class="cls-3" d="m6.83432,34.23361a2.23312,2.42521 0 1 1 -2.23312,-2.42521a2.23312,2.42521 0 0 1 2.23312,2.42521z" id="svg_7"/>
    <path stroke="null" class="cls-2" d="m4.60121,32.20619a1.86684,2.02742 0 1 0 1.86684,2.02742a1.85502,2.01459 0 0 0 -1.86684,-2.02742zm0,4.85042a2.61121,2.83583 0 1 1 2.61121,-2.823a2.61121,2.83583 0 0 1 -2.61121,2.823z" id="svg_8"/>
    <path stroke="null" class="cls-3" d="m20.22121,34.23361a2.23312,2.42521 0 1 1 -2.23312,-2.42521a2.23312,2.42521 0 0 1 2.23312,2.42521z" id="svg_9"/>
    <path stroke="null" class="cls-2" d="m17.98809,32.20619a1.86684,2.02742 0 1 0 1.86684,2.02742a1.85502,2.01459 0 0 0 -1.86684,-2.02742zm0,4.85042a2.61121,2.83583 0 1 1 2.5994,-2.823a2.61121,2.83583 0 0 1 -2.5994,2.823z" id="svg_10"/>
    <polygon stroke="null" class="cls-2" points="41.040000915527344,34.23361587524414 33.60809326171875,31.000001907348633 33.60809326171875,33.01459503173828 23.198698043823242,33.01459503173828 23.198698043823242,35.43980407714844 33.60809326171875,35.43980407714844 33.60809326171875,37.467227935791016 41.040000915527344,34.23361587524414 " id="svg_11"/>
    <rect stroke="null" class="cls-3" x="10.17809" y="35.4398" width="2.23312" height="8.8796" id="svg_12"/>
    <path stroke="null" class="cls-2" d="m10.55618,43.92162l1.48874,0l0,-8.0712l-1.48874,0l0,8.0712zm1.85502,0.8084l-2.23312,0a0.36628,0.39779 0 0 1 -0.36628,-0.41062l0,-8.8796a0.36628,0.39779 0 0 1 0.36628,-0.39779l2.23312,0a0.37809,0.41062 0 0 1 0.37809,0.39779l0,8.8796a0.37809,0.41062 0 0 1 -0.37809,0.41062z" id="svg_13"/>
    <rect stroke="null" class="cls-3" x="29.51995" y="35.4398" width="2.23312" height="8.8796" id="svg_14"/>
    <path stroke="null" class="cls-2" d="m29.88623,43.92162l1.48874,0l0,-8.0712l-1.48874,0l0,8.0712zm1.86684,0.8084l-2.23312,0a0.37809,0.41062 0 0 1 -0.37809,-0.41062l0,-8.8796a0.36628,0.39779 0 0 1 0.37809,-0.39779l2.23312,0a0.36628,0.39779 0 0 1 0.36628,0.39779l0,8.8796a0.36628,0.39779 0 0 1 -0.36628,0.41062z" id="svg_15"/>
    <rect stroke="null" class="cls-4" x="18.36618" y="39.48182" width="2.97749" height="4.85042" rx="0.63" id="svg_16"/>
    <path stroke="null" class="cls-5" d="m19.11056,39.87961a0.37809,0.41062 0 0 0 -0.37809,0.41062l0,3.23361a0.36628,0.39779 0 0 0 0.37809,0.39779l1.47693,0a0.36628,0.39779 0 0 0 0.37809,-0.39779l0,-3.23361a0.37809,0.41062 0 0 0 -0.37809,-0.41062l-1.47693,0zm1.47693,4.85042l-1.47693,0a1.18154,1.28318 0 0 1 -1.18154,-1.20619l0,-3.23361a1.18154,1.28318 0 0 1 1.18154,-1.28318l1.47693,0a1.18154,1.28318 0 0 1 1.12247,1.28318l0,3.23361a1.11065,1.20619 0 0 1 -1.12247,1.20619z" id="svg_17"/>
    <rect stroke="null" class="cls-6" x="20.58749" y="39.48182" width="2.97749" height="4.85042" rx="0.63" id="svg_18"/>
    <path stroke="null" class="cls-5" d="m21.33186,39.87961a0.36628,0.39779 0 0 0 -0.36628,0.41062l0,3.23361a0.36628,0.39779 0 0 0 0.36628,0.39779l1.48874,0a0.36628,0.39779 0 0 0 0.37809,-0.39779l0,-3.23361a0.37809,0.41062 0 0 0 -0.37809,-0.41062l-1.48874,0zm1.48874,4.85042l-1.48874,0a1.11065,1.20619 0 0 1 -1.11065,-1.20619l0,-3.23361a1.18154,1.28318 0 0 1 1.11065,-1.28318l1.48874,0a1.18154,1.28318 0 0 1 1.12247,1.28318l0,3.23361a1.18154,1.28318 0 0 1 -1.12247,1.20619z" id="svg_19"/>
    <path stroke="null" class="cls-1" d="m22.08805,70.16265a0.36628,0.39779 0 0 1 -0.36628,-0.39779l0,-22.21184a0.37809,0.41062 0 0 1 0.74437,0l0,22.21184a0.36628,0.39779 0 0 1 -0.37809,0.39779z" id="svg_20"/>
   </g>
  </g>
 </g>

</svg>