<svg width="44.765" height="72.909" xmlns="http://www.w3.org/2000/svg">

 <g>
  <g stroke="null" data-name="Layer 2" id="Layer_2">
   <g stroke="null" data-name="Layer 1" id="Layer_1-2">
    <path stroke="null" id="svg_1" d="m26.43305,41.74139l0,-1.43134l5.68506,1.43134l-5.68506,0zm-9.43019,28.97041l3.19279,-27.02378l4.48608,0l3.21974,27.02378l-10.89861,0zm1.46842,-30.51626l0,1.54585l-5.87366,0l5.87366,-1.54585zm1.83215,-4.93814l4.27053,0l0,2.86269l-4.24359,0l-0.02694,-2.86269zm-5.60423,-1.94663l3.77208,-1.04488l0,1.04488l-3.77208,0zm9.9017,-6.69869l0,3.46385l-4.27053,0l0,-3.46385l4.27053,0zm-8.59495,-1.94663l2.46532,-0.72999l0,0.72999l-2.46532,0zm6.50683,-7.97259l1.71091,4.73775l-3.4757,0l1.76479,-4.73775zm2.142,6.68438l0,1.28821l-4.32442,0l0,-1.28821l4.32442,0zm1.83215,1.28821l0,-0.6441l2.31713,0.6441l-2.31713,0zm-6.10268,7.35711l4.27053,0l0,1.28821l-4.32442,0l0.05389,-1.28821zm9.68616,1.28821l-3.63736,0l0,-0.959l3.63736,0.959zm-9.68616,6.713l4.27053,0l0,1.71761l-4.32442,0l0.05389,-1.71761zm18.86039,1.80349l-12.77118,-3.53542l0,-3.03445l10.45404,0a0.92955,0.98763 0 0 0 0.24249,-1.94663l-10.69653,-2.96288l0,-3.73581l7.88095,0a0.87566,0.93037 0 0 0 0.28291,-1.83212l-8.32551,-2.86269l-2.96377,-8.2016a1.03732,1.10214 0 0 0 -0.83525,-0.71567l0,0a1.02385,1.08782 0 0 0 -0.88913,0.72999l-2.9503,8.04415l-8.36593,3.02014a0.86219,0.91606 0 0 0 -0.64664,1.08782a0.87566,0.93037 0 0 0 0.92955,0.80155l7.88095,0l0,3.64993l-10.77736,3.04876a0.92955,0.98763 0 0 0 0.24249,1.94663l10.53487,0l0,2.86269l0,0l-12.77118,3.57836a0.91608,0.97331 0 0 0 0.25596,1.918l12.40744,0l-3.20627,27.19554a1.56272,1.66036 0 0 0 0.36374,1.2739a1.50883,1.60311 0 0 0 1.10468,0.57254l11.65302,0a1.48189,1.57448 0 0 0 1.11815,-0.54391a1.63008,1.73193 0 0 0 0.36374,-1.30252l-3.20627,-27.19554l12.42091,0a0.91608,0.97331 0 0 0 0.94302,-0.81587a0.88913,0.94469 0 0 0 -0.714,-1.04488l0.04042,0z" class="cls-1"/>
   </g>
  </g>
 </g>
</svg>
