<svg xmlns="http://www.w3.org/2000/svg" width="44.765" height="72.909" viewBox="0 0 44.765 72.909">
  <g id="Group_583" data-name="Group 583" transform="translate(-848.306 -301.429)">
    <line id="Line_195" data-name="Line 195" x2="19.433" y2="13" transform="translate(873.065 329.427)" fill="none" stroke="#5a4673" stroke-miterlimit="10" stroke-width="1.5"/>
    <line id="Line_196" data-name="Line 196" y1="0.23" x2="6.29" transform="translate(873.718 327.531)" fill="none" stroke="#5a4673" stroke-miterlimit="10" stroke-width="1.5"/>
    <line id="Line_197" data-name="Line 197" x1="12.684" y1="14.978" transform="translate(879.814 327.449)" fill="none" stroke="#5a4673" stroke-miterlimit="10" stroke-width="1.5"/>
    <line id="Line_198" data-name="Line 198" x1="3.448" y2="6.002" transform="translate(866.275 329.089)" fill="none" stroke="#5a4673" stroke-miterlimit="10" stroke-width="1.5"/>
    <line id="Line_199" data-name="Line 199" x1="20.625" y2="11.606" transform="translate(848.674 327.47)" fill="none" stroke="#5a4673" stroke-miterlimit="10" stroke-width="1.5"/>
    <line id="Line_200" data-name="Line 200" x1="17.736" y2="4.099" transform="translate(848.674 334.978)" fill="none" stroke="#5a4673" stroke-miterlimit="10" stroke-width="1.5"/>
    <line id="Line_201" data-name="Line 201" x1="3.626" y1="5.163" transform="translate(866.416 320.925)" fill="none" stroke="#5a4673" stroke-miterlimit="10" stroke-width="1.5"/>
    <line id="Line_202" data-name="Line 202" x1="4.739" y2="19.423" transform="translate(866.45 301.685)" fill="none" stroke="#5a4673" stroke-miterlimit="10" stroke-width="1.5"/>
    <line id="Line_203" data-name="Line 203" x1="1.091" y1="24" transform="translate(871.189 301.685)" fill="none" stroke="#5a4673" stroke-miterlimit="10" stroke-width="1.5"/>
    <line id="Line_204" data-name="Line 204" x1="1.251" y1="44.763" transform="translate(873.065 329.427)" fill="none" stroke="#5a4673" stroke-miterlimit="10" stroke-width="1.5"/>
    <line id="Line_205" data-name="Line 205" y1="45.234" x2="0.88" transform="translate(868.842 329.089)" fill="none" stroke="#5a4673" stroke-miterlimit="10" stroke-width="1.5"/>
    <circle id="Ellipse_3" data-name="Ellipse 3" cx="2.22" cy="2.22" r="2.22" transform="translate(869.279 325.541)" fill="none" stroke="#5a4673" stroke-miterlimit="10" stroke-width="1.5"/>
    <path id="Path_409" data-name="Path 409" d="M848.725,545.8l-.253-.073.087-.359a.777.777,0,0,1,.127.2.792.792,0,0,1,.049.154Z" transform="translate(0 -206.497)" fill="#5a4673"/>
    <path id="Path_410" data-name="Path 410" d="M994.978,301.635l.172-.206.292.246a1.3,1.3,0,0,1-.395,0Z" transform="translate(-124.018)" fill="#5a4673"/>
    <path id="Path_411" data-name="Path 411" d="M1134.731,567.553c0,.057,0,.113,0,.17s0,.115,0,.172l-.306,0a1.026,1.026,0,0,1,.053-.107.9.9,0,0,1,.05-.077c.009-.013.019-.026.031-.04a.678.678,0,0,1,.114-.111Z" transform="translate(-242.055 -225.275)" fill="#5a4673"/>
  </g>
</svg>
