<svg width="16" height="16" xmlns="http://www.w3.org/2000/svg" fill="none">
  <path id="svg_5" class="icon-color-fill" fill="#01e4e2" d="m 4.23477,2.73477 c 0,-0.2125 0.072,-0.39075 0.216,-0.53475 0.1435,-0.1435 0.3215,-0.21525 0.534,-0.21525 h 1.5 v -1.5 H 9.4848 v 1.5 h 1.5 c 0.2125,0 0.39075,0.07175 0.53475,0.21525 0.1435,0.144 0.21525,0.32225 0.21525,0.53475 v 11.99997 c 0,0.2125 -0.07175,0.3905 -0.21525,0.534 -0.144,0.144 -0.32225,0.216 -0.53475,0.216 H 4.98477 c -0.2125,0 -0.3905,-0.072 -0.534,-0.216 -0.144,-0.1435 -0.216,-0.3215 -0.216,-0.534 z m 1.5,0.75 v 3 h 4.50003 v -3 z" />
</svg>
