<svg width="18" height="16" xmlns="http://www.w3.org/2000/svg" fill="none">
<defs>
  <clipPath id="myclip">
      <path id="svg_6" d="M 0.01953125 0.0390625 L 0.01953125 16 L 17.988281 16 L 17.988281 0.0390625 L 0.01953125 0.0390625 z M 6.5058594 4.8925781 L 7.3632812 4.8925781 L 7.3632812 6.9707031 L 9.5996094 6.9707031 L 9.5996094 4.8925781 L 10.453125 4.8925781 L 10.453125 9.8691406 L 9.5996094 9.8691406 L 9.5996094 7.6503906 L 7.3632812 7.6503906 L 7.3632812 9.8691406 L 6.5058594 9.8691406 L 6.5058594 4.8925781 z M 12.146484 8.8398438 C 12.351584 8.8398438 12.525769 8.8731063 12.667969 8.9414062 C 12.810169 9.0084062 12.918388 9.1041157 12.992188 9.2285156 C 13.065987 9.3530155 13.101562 9.5015283 13.101562 9.6738281 C 13.101562 9.769528 13.086087 9.8640313 13.054688 9.9570312 C 13.023188 10.049931 12.979275 10.142775 12.921875 10.234375 C 12.865775 10.324675 12.798603 10.416866 12.720703 10.509766 C 12.642803 10.602766 12.556637 10.697822 12.460938 10.794922 L 11.878906 11.441406 L 13.207031 11.441406 L 13.207031 11.869141 L 11.185547 11.869141 L 11.185547 11.503906 L 12.154297 10.455078 C 12.255497 10.340278 12.335731 10.24105 12.394531 10.15625 C 12.453331 10.07145 12.494931 9.9941812 12.519531 9.9257812 C 12.545531 9.8560813 12.558594 9.7914156 12.558594 9.7285156 C 12.558594 9.6369157 12.542566 9.5566812 12.509766 9.4882812 C 12.476966 9.4185813 12.430087 9.3644718 12.367188 9.3261719 C 12.305688 9.2878719 12.228872 9.2675781 12.138672 9.2675781 C 12.038872 9.2675781 11.953912 9.2914907 11.882812 9.3378906 C 11.813113 9.3830906 11.759556 9.4466438 11.722656 9.5273438 C 11.687056 9.6080437 11.669922 9.6988345 11.669922 9.8027344 L 11.125 9.8027344 C 11.125 9.6263346 11.166047 9.4672655 11.248047 9.3222656 C 11.330147 9.1759658 11.448363 9.058203 11.601562 8.9707031 C 11.754662 8.8832032 11.935885 8.8398438 12.146484 8.8398438 z " />
  </clipPath>
</defs>
<path class="icon-color-stroke icon-color-fill" id="svg_5" clip-path="url(#myclip)" d="m4.875,13.86878c-1.1375,0 -2.10925,-0.3938 -2.91525,-1.1813c-0.8065,-0.7875 -1.20975,-1.75 -1.20975,-2.8875c0,-0.97495 0.29375,-1.8437 0.88125,-2.6062c0.5875,-0.7625 1.35625,-1.25 2.30625,-1.4625c0.3125,-1.15 0.9375,-2.08125 1.875,-2.79375c0.9375,-0.7125 2,-1.06875 3.1875,-1.06875c1.4625,0 2.703,0.50925 3.7215,1.52775c1.019,1.019 1.5285,2.25975 1.5285,3.72225c0.8625,0.1 1.5783,0.47175 2.1473,1.11525c0.5685,0.64405 0.8527,1.39725 0.8527,2.25975c0,0.9375 -0.328,1.7345 -0.984,2.391c-0.6565,0.656 -1.4535,0.984 -2.391,0.984l-9,0z" />
</svg>
