<svg width="16" height="14" viewBox="0 0 16 14" fill="none" xmlns="http://www.w3.org/2000/svg">
<path class="icon-color-fill" d="M14.3581 13.6397C14.5229 13.7441 14.7073 13.7939 14.8897 13.7939C15.2132 13.7939 15.5306 13.6366 15.7185 13.3481C16.0125 12.8971 15.8802 12.2966 15.4228 12.0067L8.98442 7.92604V1.1765C8.98442 0.640531 8.54364 0.205933 8.00006 0.205933C7.45647 0.205933 7.0157 0.640531 7.0157 1.1765V7.92604L0.577127 12.007C0.119729 12.2968 -0.0123919 12.8973 0.281384 13.3483C0.575598 13.7993 1.18524 13.9298 1.64176 13.6399L7.0157 10.2336C7.51568 9.91161 7.51568 9.91161 7.51568 9.91161H8.33598L8.98442 10.2336L14.3581 13.6397Z" fill="#01E4E2"/>
</svg>
