<svg width="16" height="16" xmlns="http://www.w3.org/2000/svg" fill="none">
   <path class="icon-color-fill" d="m13.05594,5.76838c-0.3375,0.3375 -0.725,0.5938 -1.1625,0.7688c-0.4375,0.175 -0.875,0.2625 -1.3125,0.2625c-0.4375,0 -0.8687,-0.0843 -1.2937,-0.2528c-0.42505,-0.169 -0.8063,-0.4285 -1.1438,-0.7785l-1.40625,-1.4062c-0.1875,-0.1875 -0.4,-0.3283 -0.6375,-0.4223c-0.2375,-0.0935 -0.48125,-0.1402 -0.73125,-0.1402c-0.25,0 -0.49375,0.0467 -0.73125,0.1402c-0.2375,0.094 -0.45,0.2348 -0.6375,0.4223l-1.40625,1.4062l-1.06875,-1.0687l1.40625,-1.4063c0.3375,-0.33747 0.71875,-0.59072 1.14375,-0.75972c0.425,-0.1685 0.85625,-0.25275 1.29375,-0.25275c0.4375,0 0.86575,0.08425 1.28475,0.25275c0.4185,0.169 0.7965,0.42225 1.134,0.75972l1.40625,1.4063c0.2,0.2 0.4188,0.3467 0.6563,0.4402c0.2375,0.094 0.4812,0.141 0.7312,0.141c0.25,0 0.497,-0.047 0.741,-0.141c0.2435,-0.0935 0.4653,-0.2402 0.6653,-0.4402l1.4062,-1.4063l1.0688,1.0688l-1.4063,1.4062zm0,3.75c-0.3375,0.3375 -0.722,0.5905 -1.1535,0.759c-0.431,0.169 -0.8652,0.2535 -1.3027,0.2535c-0.4375,0 -0.8718,-0.0845 -1.3028,-0.2535c-0.4315,-0.1685 -0.816,-0.4215 -1.1535,-0.759l-1.40625,-1.4062c-0.1875,-0.1875 -0.4,-0.3283 -0.6375,-0.4223c-0.2375,-0.0935 -0.48125,-0.1402 -0.73125,-0.1402c-0.25,0 -0.49375,0.0467 -0.73125,0.1402c-0.2375,0.094 -0.45,0.2348 -0.6375,0.4223l-1.40625,1.4062l-1.06875,-1.05l1.40625,-1.425c0.3375,-0.3375 0.71875,-0.5907 1.14375,-0.7597c0.425,-0.1685 0.85625,-0.2528 1.29375,-0.2528c0.4375,0 0.86575,0.0843 1.28475,0.2528c0.4185,0.169 0.7965,0.4222 1.134,0.7597l1.40625,1.4063c0.2,0.2 0.4188,0.3467 0.6563,0.4402c0.2375,0.094 0.4812,0.141 0.7312,0.141c0.25,0 0.497,-0.047 0.741,-0.141c0.2435,-0.0935 0.4653,-0.2402 0.6653,-0.4402l1.4062,-1.4063l1.0688,1.0688l-1.4063,1.4062zm-0.0187,3.75c-0.3375,0.3375 -0.7188,0.5908 -1.1438,0.7598c-0.425,0.1685 -0.8562,0.2527 -1.2937,0.2527c-0.4375,0 -0.8718,-0.0842 -1.3028,-0.2527c-0.4315,-0.169 -0.816,-0.4223 -1.1535,-0.7598l-1.425,-1.4062c-0.1875,-0.1875 -0.4,-0.3283 -0.6375,-0.4223c-0.2375,-0.0935 -0.48125,-0.1402 -0.73125,-0.1402c-0.25,0 -0.49375,0.0467 -0.73125,0.1402c-0.2375,0.094 -0.45,0.2348 -0.6375,0.4223l-1.40625,1.4062l-1.05,-1.05l1.40625,-1.425c0.3375,-0.3375 0.71875,-0.5907 1.14375,-0.7597c0.425,-0.1685 0.85625,-0.2528 1.29375,-0.2528c0.4375,0 0.86575,0.0843 1.28475,0.2528c0.4185,0.169 0.7965,0.4222 1.134,0.7597l1.40625,1.4063c0.2,0.2 0.422,0.3467 0.666,0.4402c0.2435,0.094 0.4903,0.141 0.7403,0.141c0.25,0 0.4937,-0.047 0.7312,-0.141c0.2375,-0.0935 0.4563,-0.2402 0.6563,-0.4402l1.4062,-1.4063l1.05,1.0688l-1.4062,1.4062z" fill="#01E4E2" id="svg_3"/>
</svg>
