<svg width="16" height="16" xmlns="http://www.w3.org/2000/svg" fill="none">
   <path class="icon-color-fill" d="m14.44901,14.73051c0.1648,0.1044 0.3492,0.1543 0.5316,0.1543c0.3235,0 0.6409,-0.1573 0.8288,-0.4459c0.294,-0.4509 0.1617,-1.0514 -0.2957,-1.3413l-6.43838,-4.08067l0,-6.74955c0,-0.53596 -0.44078,-0.97056 -0.98436,-0.97056c-0.54359,0 -0.98436,0.4346 -0.98436,0.97056l0,6.74955l-6.43857,4.08087c-0.4574,0.2899 -0.58952,0.8904 -0.29575,1.3414c0.29422,0.451 0.90386,0.5814 1.36038,0.2916l5.37394,-3.4063c0.49998,-0.322 0.49998,-0.322 0.49998,-0.322l0.8203,0l0.64844,0.322l5.37368,3.406z" fill="#01E4E2" id="svg_3"/>
</svg>
