<svg width="24.765" class="park-legend-margin" height="20.909" xmlns="http://www.w3.org/2000/svg" viewBox="0 0 25.92 41.68">
	<g id="Layer_2" data-name="Layer 2">
		<g id="Layer_1-2" data-name="Layer 1">
			<path class="cls-1" d="M15.91,20.08v-1l4.22,1Zm-7,20.24,2.37-18.88h3.33L17,40.32ZM10,19v1.08H5.64Zm1.36-3.45h3.17v2H11.38ZM7.2,14.19,10,13.46v.73Zm7.35-4.68v2.42H11.38V9.51ZM8.17,8.15,10,7.64v.51ZM13,2.58l1.27,3.31H11.69Zm1.59,4.67v.9H11.38v-.9Zm1.36.9V7.7l1.72.45Zm-4.53,5.14h3.17v.9H11.38Zm7.19.9H15.91v-.67Zm-7.19,4.69h3.17v1.2H11.38Zm14,1.26-9.48-2.47V15.55h7.76a.69.69,0,0,0,.18-1.36l-7.94-2.07V9.51h5.85A.65.65,0,0,0,22,8.23l-6.18-2L13.62.5A.77.77,0,0,0,13,0h0a.76.76,0,0,0-.66.51L10.15,6.13,3.94,8.24A.64.64,0,0,0,3.46,9a.65.65,0,0,0,.69.56H10v2.55l-8,2.13a.69.69,0,0,0,.18,1.36H10v2h0L.52,20.1a.68.68,0,0,0,.19,1.34H9.92l-2.38,19a1.16,1.16,0,0,0,.27.89,1.12,1.12,0,0,0,.82.4h8.65a1.1,1.1,0,0,0,.83-.38,1.21,1.21,0,0,0,.27-.91L16,21.44h9.22a.68.68,0,0,0,.7-.57A.66.66,0,0,0,25.39,20.14Z" />
		</g>
	</g>
</svg>
