          <svg
            width="24.765"
            height="20.909"
            viewBox="0 0 27 42"
            fill="none"
            xmlns="http://www.w3.org/2000/svg"
            class="park-legend-margin"
          >
            <path d="M15.094 16.045L26.231 23.495" stroke="#5A4673" stroke-miterlimit="10" />
            <path d="M15.468 15.091L19.073 14.959" stroke="#5A4673" stroke-miterlimit="10" />
            <path d="M26.2309 23.496L18.9619 14.912" stroke="#5A4673" stroke-miterlimit="10" />
            <path d="M13.1789 15.852L11.2029 19.292" stroke="#5A4673" stroke-miterlimit="10" />
            <path d="M12.935 14.924L1.11499 21.576" stroke="#5A4673" stroke-miterlimit="10" />
            <path d="M11.279 19.227L1.11499 21.576" stroke="#5A4673" stroke-miterlimit="10" />
            <path d="M13.3619 14.132L11.2839 11.173" stroke="#5A4673" stroke-miterlimit="10" />
            <path d="M14.019 0.147003L11.303 11.278" stroke="#5A4673" stroke-miterlimit="10" />
            <path d="M14.644 13.901L14.019 0.147003" stroke="#5A4673" stroke-miterlimit="10" />
            <path d="M15.811 41.698L15.094 16.045" stroke="#5A4673" stroke-miterlimit="10" />
            <path d="M12.6741 41.775L13.1781 15.852" stroke="#5A4673" stroke-miterlimit="10" />
            <path
              d="M14.1961 16.362C14.8986 16.362 15.4681 15.7925 15.4681 15.09C15.4681 14.3875 14.8986 13.818 14.1961 13.818C13.4936 13.818 12.9241 14.3875 12.9241 15.09C12.9241 15.7925 13.4936 16.362 14.1961 16.362Z"
              stroke="#5A4673"
              stroke-miterlimit="10"
            />
            <path
              d="M1.14502 21.706L1 21.664L1.04999 21.458C1.07964 21.4921 1.10394 21.5305 1.12201 21.572C1.1343 21.6003 1.1437 21.6298 1.15002 21.66L1.14502 21.706Z"
              fill="#5A4673"
            />
            <path
              d="M13.8879 0.118011L13.9879 0L14.1549 0.141022C14.08 0.152406 14.0038 0.152406 13.9289 0.141022L13.8879 0.118011Z"
              fill="#5A4673"
            />
            <path
              d="M26.335 23.41V23.51C26.335 23.543 26.335 23.576 26.335 23.61H26.1589C26.168 23.589 26.1784 23.5687 26.1899 23.549C26.1985 23.5339 26.2079 23.5192 26.218 23.505L26.236 23.482C26.2551 23.4582 26.277 23.4367 26.301 23.418L26.335 23.41Z"
              fill="#5A4673"
            />
          </svg>