 <svg xmlns="http://www.w3.org/2000/svg" viewBox="0 0 35 35">
          <path
            fill="#5f6060"
            d="M34.8,32.38l-1.45-1.45a.69.69,0,0,0-1,1l.29.28H30.82V23.79a2,2,0,0,0,0-3.86V6.8a2.06,2.06,0,1,0-1.95-.32L24.49,19.62a1.86,1.86,0,0,
                0-.84.2L20.78,17a2,2,0,0,0,.2-.88,2,2,0,0,0-4-.69H9.67a2.06,2.06,0,0,0-4,.69A2,2,0,0,0,7.05,18v7.33a2.07,2.07,0,0,0-1.37,1.94A2,2,0,0,
                0,7.05,29.2v3H2.82V28H3.5a.69.69,0,0,0,0-1.37H2.82V22.35H3.5A.69.69,0,0,0,3.5,21H2.82V16.75H3.5a.69.69,0,0,0,0-1.37H2.82V11.15H3.5a.67.67,
                0,0,0,.68-.68.68.68,0,0,0-.68-.69H2.82V5.55H3.5a.67.67,0,0,0,.68-.68.68.68,0,0,0-.68-.69H2.82V2.33l.28.29a.69.69,0,0,0,1-1L2.62.2a.68.68,
                0,0,0-1,0L.2,1.65a.68.68,0,0,0,0,1,.69.69,0,0,0,.48.2.71.71,0,0,0,.49-.2l.28-.29V32.87a.69.69,0,0,0,.68.68H32.67l-.29.28a.7.7,0,0,0,0,
                1,.71.71,0,0,0,.49.2.69.69,0,0,0,.48-.2l1.45-1.45A.68.68,0,0,0,34.8,32.38ZM24.53,21a.69.69,0,1,1-.68.69A.69.69,0,0,1,24.53,21Zm-5.6-5.6a.69.69,
                0,1,1-.68.69A.69.69,0,0,1,18.93,15.38ZM9.67,16.75H17a2.05,2.05,0,0,0,2.82,1.17l2.86,2.86a2.05,2.05,0,1,0,3.11-.73l3.66-11V19.93a2,2,0,0,0-1.18,
                2.78l-2.82,2.72a2,2,0,0,0-.92-.21,2.06,2.06,0,0,0-1.42.57l-7.74-3.87a2.09,2.09,0,0,0,0-.25,2.05,2.05,0,0,0-4.1,0,2,2,0,0,0,.2.88L8.62,
                25.42l-.2-.09V18A2.09,2.09,0,0,0,9.67,16.75ZM25.22,27.27a.69.69,0,1,1-.69-.69A.69.69,0,0,1,25.22,27.27ZM14,21.67a.69.69,0,1,1-.69-.69A.69.69,
                0,0,1,14,21.67ZM7.73,15.38a.69.69,0,1,1-.68.69A.69.69,0,0,1,7.73,15.38ZM7.73,28a.69.69,0,1,1,.69-.68A.69.69,0,0,1,7.73,28Zm17.49,
                4.23V31.5a.68.68,0,0,0-.69-.68.67.67,0,0,0-.68.68v.68H19.62V31.5a.69.69,0,0,0-1.37,0v.68H14V31.5a.69.69,0,0,0-1.37,0v.68H8.42v-3a2.06,2.06,0,0,0,
                1.16-2.82l2.87-2.86a2,2,0,0,0,.88.2,2.05,2.05,0,0,0,1.43-.58L22.5,27a2.28,2.28,0,0,0,0,.26,2.05,2.05,0,1,0,4.1,0,2,2,0,0,0-.18-.85l2.82-2.72a1.57,
                1.57,0,0,0,.23.09v8.39Zm4.91-9.64a.68.68,0,1,1,0-1.36.68.68,0,1,1,0,1.36Zm0-17a.68.68,0,0,1-.68-.68.69.69,0,1,1,.68.68Z"
          ></path>
        </svg>