 <svg xmlns="http://www.w3.org/2000/svg" viewBox="0 0 32.09 32.21">
            <title>wps-icon-scientific</title>
            <g id="Layer_2" data-name="Layer 2">
              <g id="Layer_1-2" data-name="Layer 1">
                <path
                  d="M24.83,15.48h0l-3.55-.74c0-.44,0-.9,0-1.36s0-.86,0-1.28V1.53A1.54,1.54,0,0,0,19.75,0H1.53A1.54,1.54,0,0,0,0,1.53V30.67a1.54,1.54,0,0,0,1.53,1.54H19.75a1.57,1.57,0,0,0,1.15-.52,8.38,8.38,0,1,0,3.93-16.21Zm-.95-.07Zm-2.6-.4h0v.75h0Zm8.19,13.47a7.44,7.44,0,0,1-13-3,.47.47,0,1,0-.92.22,8.32,8.32,0,0,0,4.33,5.56c-.09,0,.95,0-18.34,0A.58.58,0,0,1,1,30.67V1.53A.58.58,0,0,1,1.53,1H19.75a.58.58,0,0,1,.58.58V16.11a8.37,8.37,0,0,0-5,7.57.48.48,0,0,0,.47.48.47.47,0,0,0,.48-.47,7.43,7.43,0,1,1,13.2,4.79Z"
                />
                <path d="M3.39,4.14h14.5a.48.48,0,1,0,0-.95H3.39a.48.48,0,1,0,0,.95Z" />
                <path d="M9.61,5.57a.48.48,0,1,0,0,.95h4.32a.48.48,0,1,0,0-.95Z" />
                <path d="M3.39,6.52H7.71a.48.48,0,0,0,0-.95H3.39a.48.48,0,1,0,0,.95Z" />
                <path d="M14.5,10.64H3.39a.48.48,0,1,0,0,.95H14.5a.48.48,0,1,0,0-.95Z" />
                <path d="M17.89,10.64H16.41a.48.48,0,1,0,0,.95h1.48a.48.48,0,1,0,0-.95Z" />
                <path d="M3.39,14H7.52a.48.48,0,1,0,0-1H3.39a.48.48,0,1,0,0,1Z" />
                <path d="M13.77,24.38H3.39a.48.48,0,0,0,0,1H13.77a.48.48,0,0,0,0-1Z" />
                <path d="M3.39,27.72H7.2a.48.48,0,0,0,0-1H3.39a.48.48,0,1,0,0,1Z" />
                <path d="M12.91,26.76H9.1a.48.48,0,0,0,0,1h3.81a.48.48,0,1,0,0-1Z" />
                <path
                  d="M27.89,25.42a.37.37,0,0,0-.52,0,.37.37,0,0,0,0,.52l.58.55a.35.35,0,0,0,.26.1.34.34,0,0,0,.26-.11.37.37,0,0,0,0-.52Z"
                />
                <path
                  d="M26.34,26.62a.36.36,0,0,0-.47-.22.37.37,0,0,0-.22.47l.27.75a.36.36,0,0,0,.34.25l.13,0a.37.37,0,0,0,.22-.47Z"
                />
                <path d="M29.54,23.61l-.77-.19a.37.37,0,1,0-.18.72l.78.18h.09a.37.37,0,0,0,.08-.72Z" />
                <path
                  d="M28.27,21.71a.38.38,0,0,0,.36.26h.1l.77-.23a.37.37,0,0,0,.25-.45.36.36,0,0,0-.46-.25l-.77.22A.38.38,0,0,0,28.27,21.71Z"
                />
                <path
                  d="M27.5,20.12a.35.35,0,0,0,.26-.12l.55-.57a.37.37,0,0,0,0-.52.36.36,0,0,0-.52,0l-.55.58a.37.37,0,0,0,0,.52.4.4,0,0,0,.26.1Z"
                />
                <path
                  d="M25.5,19.07h.09A.38.38,0,0,0,26,18.8l.19-.78a.37.37,0,1,0-.72-.18l-.19.78A.38.38,0,0,0,25.5,19.07Z"
                />
                <path
                  d="M24.44,25.47h.16a2.69,2.69,0,1,0,0-5.37h-.16v-.85a1.85,1.85,0,0,0-3.69,0v6.35a2.58,2.58,0,1,0,3.69,0Zm.16-4.63a1.95,1.95,0,0,1,0,3.9h-.16V20.84Zm-2,8.42a1.83,1.83,0,0,1-1.22-3.21.4.4,0,0,0,.12-.28V19.26a1.11,1.11,0,0,1,2.21,0v6.51a.36.36,0,0,0,.12.28,1.83,1.83,0,0,1-1.23,3.21Z"
                />
                <path
                  d="M23,26.38V19.71a.37.37,0,1,0-.73,0v6.67a1.11,1.11,0,1,0,.73,0Zm-.37,1.41a.37.37,0,1,1,.37-.37A.37.37,0,0,1,22.59,27.79Z"
                />
                <path d="M14.5,17.18H3.39a.48.48,0,1,0,0,1H14.5a.48.48,0,1,0,0-1Z" />
                <path d="M3.39,20.52H7.52a.48.48,0,0,0,0-1H3.39a.48.48,0,0,0,0,1Z" />
              </g>
            </g>
          </svg>