<svg width="16" height="16" xmlns="http://www.w3.org/2000/svg" fill="none">
  <path id="svg_1" class="icon-color-stroke icon-color-fill" stroke-width="0.1" stroke="#01E4E2" fill="#01E4E2" d="m8.28403,15.86904c-1.883,0 -3.4125,-1.5265 -3.4125,-3.4095c0,-1.164 0.594,-2.2515 1.575,-2.878l0,-7.625c0,-1.014 0.8235,-1.8375 1.8375,-1.8375c1.01403,0 1.83753,0.8235 1.83753,1.8375l0,7.6295c1.5875,1.014 2.0545,3.1235 1.0405,4.708c-0.6265,0.981 -1.7125,1.575 -2.87803,1.575zm0,-15.225c-0.725,0 -1.3125,0.5875 -1.3125,1.3125l0,7.7765c0,0.0955 -0.0485,0.1795 -0.131,0.2265c-1.381,0.797 -1.853,2.5625 -1.0565,3.9435c0.7965,1.381 2.5625,1.853 3.94353,1.0565c1.381,-0.7965 1.853,-2.5625 1.0565,-3.9435c-0.253,-0.439 -0.617,-0.8045 -1.0565,-1.0565c-0.0815,-0.0455 -0.131,-0.1345 -0.131,-0.2265l0,-7.7765c0,-0.725 -0.58753,-1.3125 -1.31253,-1.3125l0,0zm2.36253,11.8125c0,1.3065 -1.0565,2.3625 -2.36253,2.3625c-1.306,0 -2.3625,-1.0565 -2.3625,-2.3625c0,-1.0015 0.6295,-1.894 1.575,-2.228l0,-3.9405c0,-0.1435 0.119,-0.2625 0.2625,-0.2625l1.05,0c0.144,0 0.2625,0.119 0.2625,0.2625l0,3.944c0.94203,0.3315 1.57503,1.225 1.57503,2.225l0,-0.0005z"/>
</svg>
